<svg width="0" height="0" class="hidden">
  <symbol xmlns="http://www.w3.org/2000/svg" viewBox="0 0 24 24" id="instagram">
    <title>Instagram icon</title>
    <path d="M12 0C8.74 0 8.333.015 7.053.072 5.775.132 4.905.333 4.14.63c-.789.306-1.459.717-2.126 1.384S.935 3.35.63 4.14C.333 4.905.131 5.775.072 7.053.012 8.333 0 8.74 0 12s.015 3.667.072 4.947c.06 1.277.261 2.148.558 2.913a5.885 5.885 0 001.384 2.126A5.868 5.868 0 004.14 23.37c.766.296 1.636.499 2.913.558C8.333 23.988 8.74 24 12 24s3.667-.015 4.947-.072c1.277-.06 2.148-.262 2.913-.558a5.898 5.898 0 002.126-1.384 5.86 5.86 0 001.384-2.126c.296-.765.499-1.636.558-2.913.06-1.28.072-1.687.072-4.947s-.015-3.667-.072-4.947c-.06-1.277-.262-2.149-.558-2.913a5.89 5.89 0 00-1.384-2.126A5.847 5.847 0 0019.86.63c-.765-.297-1.636-.499-2.913-.558C15.667.012 15.26 0 12 0zm0 2.16c3.203 0 3.585.016 4.85.071 1.17.055 1.805.249 2.227.415.562.217.96.477 1.382.896.419.42.679.819.896 1.381.164.422.36 1.057.413 2.227.057 1.266.07 1.646.07 4.85s-.015 3.585-.074 4.85c-.061 1.17-.256 1.805-.421 2.227a3.81 3.81 0 01-.899 1.382 3.744 3.744 0 01-1.38.896c-.42.164-1.065.36-2.235.413-1.274.057-1.649.07-4.859.07-3.211 0-3.586-.015-4.859-.074-1.171-.061-1.816-.256-2.236-.421a3.716 3.716 0 01-1.379-.899 3.644 3.644 0 01-.9-1.38c-.165-.42-.359-1.065-.42-2.235-.045-1.26-.061-1.649-.061-4.844 0-3.196.016-3.586.061-4.861.061-1.17.255-1.814.42-2.234.21-.57.479-.96.9-1.381.419-.419.81-.689 1.379-.898.42-.166 1.051-.361 2.221-.421 1.275-.045 1.65-.06 4.859-.06l.045.03zm0 3.678a6.162 6.162 0 100 12.324 6.162 6.162 0 100-12.324zM12 16c-2.21 0-4-1.79-4-4s1.79-4 4-4 4 1.79 4 4-1.79 4-4 4zm7.846-10.405a1.441 1.441 0 01-2.88 0 1.44 1.44 0 012.88 0z"></path>
  </symbol>
  <symbol xmlns="http://www.w3.org/2000/svg" viewBox="0 0 24 24" id="linkedin">
    <title>LinkedIn icon</title>
    <path d="M20.447 20.452h-3.554v-5.569c0-1.328-.027-3.037-1.852-3.037-1.853 0-2.136 1.445-2.136 2.939v5.667H9.351V9h3.414v1.561h.046c.477-.9 1.637-1.85 3.37-1.85 3.601 0 4.267 2.37 4.267 5.455v6.286zM5.337 7.433a2.062 2.062 0 01-2.063-2.065 2.064 2.064 0 112.063 2.065zm1.782 13.019H3.555V9h3.564v11.452zM22.225 0H1.771C.792 0 0 .774 0 1.729v20.542C0 23.227.792 24 1.771 24h20.451C23.2 24 24 23.227 24 22.271V1.729C24 .774 23.2 0 22.222 0h.003z"></path>
  </symbol>
  <symbol xmlns="http://www.w3.org/2000/svg" viewBox="0 0 24 24" id="signal">
    <title>Signal icon</title>
    <path d="M12.012 2.598c-5.22 0-9.452 3.9-9.452 8.709 0 3.016 1.219 5.301 3.155 6.774H5.71l.234 3.042v.004c0 .017 0 .031.004.046v.006a.306.306 0 00.445.22l.011-.008L9.3 19.717c.854.196 1.767.299 2.71.299 5.22 0 9.452-3.899 9.452-8.71 0-4.81-4.233-8.709-9.454-8.709l.004.001zM10.39.72a13.058 13.058 0 011.605-.104c.38 0 .75.02 1.119.052l.057-.614a13.089 13.089 0 00-2.865.055l.083.612.001-.001zm3.797.094c.915.165 1.785.436 2.61.795l.252-.567c-.132-.056-.263-.112-.397-.165-.762-.3-1.551-.524-2.355-.671l-.11.608zm9.169 10.556a9.97 9.97 0 01-.405 2.655l.59.175a10.55 10.55 0 00.431-2.831l-.616.001zM6.745 1.814A12.139 12.139 0 019.331.912L9.196.308a12.161 12.161 0 00-2.72.95l.269.556zm13.65 1.399a12.005 12.005 0 00-2.329-1.673l-.311.541c.811.445 1.561.981 2.224 1.596l.416-.462v-.002zm-5.244 18.838c.945-.24 1.845-.591 2.686-1.03l-.315-.533c-.786.413-1.631.738-2.521.967l.15.596zM3.677 4.005c.63-.638 1.347-1.2 2.13-1.675l-.327-.529c-.698.422-1.35.914-1.945 1.473-.102.094-.2.191-.3.289l.439.441.003.001zm19.48 11.28l-.568-.236a10.472 10.472 0 01-1.354 2.332l.495.369a11.035 11.035 0 001.424-2.465h.003zM20.726 4.433a10.54 10.54 0 011.534 2.228l.555-.275a11.052 11.052 0 00-1.627-2.366l-.465.413h.003zm2.554 3.003l-.568.244c.313.828.521 1.703.604 2.61l.615-.061a10.444 10.444 0 00-.651-2.793zM6.386 22.849l-.969.425-.332-1.025-.585.19.438 1.347a.33.33 0 00.167.188.305.305 0 00.249 0l1.283-.563-.251-.562zm3.823-1.193c-.078-.016-.157-.027-.237-.041l-.465-.079a.311.311 0 00-.172.023l-1.951.853.271.554 1.845-.803c.125.021.25.041.371.059.068.017.139.026.209.038l.129-.604zm3.728.02c-.633.104-1.281.156-1.942.156-.273 0-.525-.015-.772-.038l-.019.615c.251.024.511.04.791.04.698 0 1.383-.058 2.048-.166l-.104-.606-.002-.001zM1.517 7.116c.37-.825.852-1.598 1.425-2.302l-.47-.407A10.884 10.884 0 00.964 6.834l-.01.021.563.261zM20.532 18.21a11.497 11.497 0 01-2.07 1.728l.339.515a11.983 11.983 0 002.19-1.829l-.459-.414zM.97 14.551c-.188-.796-.293-1.676-.323-2.671H.031c.03 1.071.145 2.005.345 2.843l.594-.172zM.538 7.925c-.297.91-.468 1.853-.51 2.813l.615.03a9.968 9.968 0 01.487-2.662l-.592-.181zm4.199 13.26l-.59-1.815a.306.306 0 00-.105-.147 11.75 11.75 0 01-.66-.558l-.422.446c.194.184.408.362.629.541l.561 1.717.587-.184zm-2.105-3.292a7.463 7.463 0 01-1.355-2.315l-.573.229a8.016 8.016 0 001.468 2.497l.46-.411z"></path>
  </symbol>
  <symbol xmlns="http://www.w3.org/2000/svg" viewBox="0 0 24 24" id="facebook">
    <title>Facebook icon</title>
    <path d="M24 12.073c0-6.627-5.373-12-12-12s-12 5.373-12 12c0 5.99 4.388 10.954 10.125 11.854v-8.385H7.078v-3.47h3.047V9.43c0-3.007 1.792-4.669 4.533-4.669 1.312 0 2.686.235 2.686.235v2.953H15.83c-1.491 0-1.956.925-1.956 1.874v2.25h3.328l-.532 3.47h-2.796v8.385C19.612 23.027 24 18.062 24 12.073z"></path>
  </symbol>
  <symbol xmlns="http://www.w3.org/2000/svg" viewBox="0 0 24 24" id="menu">
    <path d="M21.5 24h-19A2.503 2.503 0 010 21.5v-19C0 1.122 1.121 0 2.5 0h19C22.879 0 24 1.122 24 2.5v19c0 1.378-1.121 2.5-2.5 2.5zM2.5 1C1.673 1 1 1.673 1 2.5v19c0 .827.673 1.5 1.5 1.5h19c.827 0 1.5-.673 1.5-1.5v-19c0-.827-.673-1.5-1.5-1.5z"></path>
    <path d="M16.5 8h-9a.5.5 0 010-1h9a.5.5 0 010 1zm0 4.5h-9a.5.5 0 010-1h9a.5.5 0 010 1zm0 4.5h-9a.5.5 0 010-1h9a.5.5 0 010 1z"></path>
  </symbol>
</svg>